<?xml version="1.0" standalone="no"?>
<!DOCTYPE svg PUBLIC "-//W3C//DTD SVG 20010904//EN"
 "http://www.w3.org/TR/2001/REC-SVG-20010904/DTD/svg10.dtd">
<svg version="1.0" xmlns="http://www.w3.org/2000/svg"
 width="700.000000pt" height="700.000000pt" viewBox="0 0 700.000000 700.000000"
 preserveAspectRatio="xMidYMid meet">
<metadata>
Created by potrace 1.14, written by Peter Selinger 2001-2017
</metadata>
<g transform="translate(0.000000,700.000000) scale(0.100000,-0.100000)"
fill="#000000" stroke="none">
<path d="M3560 6714 c-25 -7 -64 -13 -87 -13 -23 -1 -48 -8 -57 -16 -8 -9 -33
-15 -58 -15 -32 0 -47 -5 -58 -20 -9 -13 -26 -20 -48 -20 -26 0 -42 -9 -72
-40 -35 -37 -43 -40 -90 -40 -45 0 -56 -4 -80 -30 -15 -16 -33 -30 -40 -30 -6
0 -38 -27 -70 -60 -32 -33 -64 -60 -70 -60 -6 0 -31 -20 -55 -45 -35 -35 -45
-52 -45 -78 0 -21 -7 -38 -20 -47 -14 -10 -20 -26 -20 -52 0 -21 -4 -38 -9
-38 -5 0 -13 -9 -16 -20 -4 -11 -31 -46 -60 -78 -72 -78 -115 -158 -115 -214
0 -32 -5 -47 -20 -58 -12 -9 -29 -44 -41 -85 -11 -38 -38 -98 -60 -133 -21
-35 -39 -70 -39 -78 0 -8 -4 -14 -10 -14 -5 0 -10 -17 -10 -38 0 -26 -6 -42
-20 -52 -12 -8 -20 -26 -20 -42 0 -15 -4 -28 -10 -28 -5 0 -10 -13 -10 -30 0
-16 -4 -30 -10 -30 -6 0 -10 -30 -10 -70 l0 -70 -120 0 c-108 0 -120 -2 -120
-18 0 -10 -9 -24 -20 -32 -14 -10 -20 -26 -20 -52 0 -21 -4 -38 -10 -38 -6 0
-10 -33 -10 -80 0 -47 4 -80 10 -80 6 0 10 -4 10 -10 0 -5 -16 -10 -36 -10
-44 0 -64 -19 -64 -62 0 -22 -7 -39 -20 -48 -16 -12 -20 -26 -20 -72 0 -32 -4
-58 -10 -58 -6 0 -10 -46 -10 -119 0 -76 -4 -121 -11 -123 -7 -2 -10 -84 -10
-251 1 -160 -2 -247 -9 -247 -6 0 -10 -62 -10 -170 0 -107 -4 -170 -10 -170
-6 0 -10 -140 -10 -400 0 -260 4 -400 10 -400 6 0 10 -13 10 -30 0 -16 5 -30
10 -30 6 0 10 -50 10 -130 0 -80 4 -130 10 -130 6 0 10 -27 10 -60 0 -33 4
-60 10 -60 6 0 10 -8 10 -18 0 -10 9 -24 20 -32 14 -10 20 -26 20 -52 0 -21 5
-38 10 -38 19 0 10 -53 -12 -71 l-21 -19 34 -67 c18 -38 44 -86 58 -108 14
-22 35 -74 47 -115 36 -118 96 -250 115 -250 19 0 49 -31 49 -51 0 -9 7 -24
15 -35 21 -28 18 -64 -7 -91 -21 -23 -21 -23 -1 -23 11 0 26 -7 33 -15 7 -8
21 -15 32 -15 20 0 54 -30 82 -72 11 -17 30 -28 54 -33 20 -4 56 -15 80 -26
65 -28 135 -35 163 -15 13 9 31 16 40 16 21 0 46 -29 51 -59 4 -33 52 -47 85
-26 12 8 29 15 36 15 21 0 45 -32 49 -64 l3 -30 80 0 c65 -1 91 -6 139 -29 51
-24 68 -27 115 -21 37 4 76 1 114 -9 49 -13 59 -13 71 -1 8 8 21 14 28 14 8 0
20 9 28 20 8 11 20 20 28 20 7 0 35 23 62 50 27 28 54 50 60 50 6 0 29 18 50
40 21 22 45 40 52 40 7 0 20 9 28 20 8 11 22 20 32 20 10 0 18 5 18 10 0 6 8
10 18 10 10 0 24 9 32 20 8 11 21 20 30 20 9 0 22 9 30 20 10 13 26 20 48 20
25 0 42 8 62 30 27 29 60 40 60 20 0 -5 16 -10 36 -10 29 0 44 8 84 50 40 42
55 50 84 50 20 0 36 5 36 10 0 6 5 10 11 10 6 0 40 27 75 60 35 32 92 78 126
101 69 47 128 102 128 120 0 6 14 24 30 39 17 15 30 38 30 49 0 12 20 41 44
66 25 24 53 64 64 87 10 24 35 64 55 91 21 26 37 52 37 57 0 6 5 10 10 10 6 0
10 9 10 20 0 11 5 20 10 20 6 0 10 22 10 48 0 36 5 51 20 62 11 8 20 22 20 32
0 10 5 18 10 18 6 0 10 18 10 40 0 22 5 40 10 40 6 0 10 8 10 18 0 10 9 24 20
32 11 8 20 21 20 28 0 7 18 31 40 52 26 25 40 47 40 64 0 14 5 26 10 26 6 0
10 18 10 40 0 22 5 40 10 40 6 0 10 14 10 30 0 17 4 30 9 30 9 0 14 28 27 140
6 48 12 59 55 101 27 26 49 55 49 63 0 9 5 16 10 16 6 0 10 14 10 30 0 17 5
30 10 30 6 0 10 12 10 26 0 17 14 39 40 64 22 21 40 45 40 52 0 7 9 20 20 28
11 8 20 22 20 32 0 10 5 18 10 18 6 0 10 14 10 30 0 17 5 30 10 30 6 0 10 18
10 40 0 22 5 40 10 40 6 0 10 30 10 70 0 40 4 70 10 70 6 0 10 30 10 70 0 63
-2 70 -20 70 -11 0 -20 5 -20 10 0 6 5 10 10 10 6 0 10 23 10 50 0 28 5 50 10
50 6 0 10 9 10 20 0 11 5 20 10 20 6 0 10 30 10 70 0 56 -3 70 -15 70 -26 0
-85 66 -85 95 0 14 5 25 10 25 6 0 10 9 10 20 0 11 5 20 10 20 6 0 10 14 10
30 0 17 5 30 10 30 6 0 10 9 10 20 0 11 5 20 10 20 6 0 10 14 10 30 0 17 5 30
10 30 6 0 10 26 10 58 0 46 4 60 20 72 14 10 20 26 20 52 0 21 5 38 10 38 6 0
10 90 10 250 0 160 -4 250 -10 250 -6 0 -10 70 -10 190 0 110 4 190 9 190 6 0
6 12 1 32 -12 40 -119 251 -154 302 -27 40 -56 123 -56 161 0 11 -9 27 -20 35
-11 8 -20 20 -20 27 0 16 -225 243 -240 243 -14 0 -60 46 -60 60 0 15 -25 40
-40 40 -6 0 -42 32 -80 70 -63 64 -72 70 -111 70 -33 0 -47 6 -69 30 -23 24
-36 30 -72 30 -32 0 -47 5 -58 20 -8 11 -22 20 -32 20 -10 0 -18 5 -18 10 0 6
-9 10 -20 10 -11 0 -20 5 -20 10 0 6 -7 10 -16 10 -9 0 -29 14 -44 30 -15 17
-35 30 -43 30 -9 0 -17 5 -19 11 -2 5 -46 14 -99 19 -52 5 -108 14 -123 20
-41 15 -569 11 -626 -6z m1228 -4744 c-14 -22 -24 -19 -15 5 4 8 11 15 17 15
6 0 6 -7 -2 -20z m-413 -490 c-3 -5 -11 -10 -16 -10 -6 0 -7 5 -4 10 3 6 11
10 16 10 6 0 7 -4 4 -10z m-312 -187 c-7 -2 -19 -2 -25 0 -7 3 -2 5 12 5 14 0
19 -2 13 -5z"/>
</g>
</svg>
